# xmcd
#
# Track frame offsets: 
#        150
#        10050
#        12255
#        27855
#        47580
#        62280
#        78105
#        91455
#        101205
#        118095
#        133395
#        133850
#
# Disc length: 1910 seconds
#
# Revision: 0
# Processed by: cddbd v1.5.2PL0 Copyright (c) Steve Scherf et al.
# Submitted via: ExactAudioCopy v0.99pb3
#
DISCID=9707740c
DTITLE=Paris James - Death Letter
DYEAR=2006
DGENRE=Blues
TTITLE0=Skinnin' Board Stomp
TTITLE1=Folk Tales Intro
TTITLE2=Folk Tales
TTITLE3=Wake Up Mary
TTITLE4=Death Letter
TTITLE5=See That My Grave Is Kept Clean
TTITLE6=Low Down Blues
TTITLE7=32-20 Blues
TTITLE8=I Ain't Superstitious
TTITLE9=44 Blues
TTITLE10=Ride That Tide Intro
TTITLE11=Ride That Tide
EXTD=
EXTT0=
EXTT1=
EXTT2=
EXTT3=
EXTT4=
EXTT5=
EXTT6=
EXTT7=
EXTT8=
EXTT9=
EXTT10=
EXTT11=
PLAYORDER=
